<svg width="136" height="30" viewBox="0 0 136 30" fill="none" xmlns="http://www.w3.org/2000/svg">
<path d="M133.688 9.77643C130.989 12.4572 127.021 14.1918 123.37 14.5072C124.799 12.2995 125.91 10.0918 125.91 7.88412C125.91 7.88412 125.91 7.88412 125.91 7.72643V6.78027C125.91 7.72643 121.942 8.83028 121.307 8.98797C119.878 9.46105 114.164 10.4072 110.513 13.8764C109.085 15.2957 108.767 16.7149 108.291 18.6072C108.926 16.3995 110.672 15.2957 113.212 14.0341C115.91 12.9303 120.196 12.4572 120.355 12.2995C120.037 12.7726 119.72 13.2457 119.72 13.2457C118.767 14.6649 117.974 16.0841 117.815 17.6611V18.1341H118.291C121.624 17.8188 124.799 16.8726 127.815 15.4534C131.148 13.7188 132.894 11.1957 135.116 8.3572C134.958 8.51489 133.847 9.46105 133.688 9.77643Z" fill="white"/>
<path d="M98.1314 16.2424C98.1314 18.6078 99.0838 20.6578 100.671 22.2347C102.258 23.8116 104.322 24.7578 106.703 24.7578C107.338 24.7578 107.814 24.7578 108.449 24.6001C108.449 24.6001 108.608 24.6001 108.766 24.6001C109.243 24.4424 109.719 24.2847 110.195 24.127C110.354 24.127 110.354 23.9693 110.512 23.9693C110.671 23.9693 110.671 23.8116 110.83 23.8116C111.147 23.3386 111.306 22.7078 111.147 22.2347C111.147 22.077 110.989 22.077 110.989 21.9193C110.989 21.7616 110.83 21.7616 110.83 21.6039C110.354 21.2886 109.719 21.1309 109.243 21.2886C109.084 21.2886 109.084 21.2886 108.925 21.4462C108.766 21.4462 108.766 21.4462 108.608 21.6039C108.131 21.7616 107.655 21.7616 107.02 21.7616C105.592 21.7616 104.163 21.1309 103.211 20.1847C102.258 19.2386 101.624 17.8193 101.624 16.4001C101.624 14.9808 102.258 13.5616 103.211 12.6155C104.163 11.6693 105.592 11.0385 107.02 11.0385C107.338 11.0385 107.814 11.0385 108.131 11.1962H108.29C108.608 11.1962 108.925 11.3539 109.084 11.5116C109.243 11.5116 109.243 11.5116 109.401 11.6693C109.56 11.6693 109.56 11.6693 109.719 11.6693C110.354 11.6693 110.83 11.3539 110.989 10.7231C110.989 10.5655 110.989 10.5655 111.147 10.4078C111.147 10.2501 111.147 10.2501 111.147 10.0924C111.147 9.4616 110.83 8.98853 110.195 8.83083C110.036 8.83083 109.878 8.67314 109.719 8.67314C109.56 8.67314 109.401 8.51545 109.243 8.51545C108.449 8.35776 107.655 8.20006 106.862 8.20006C104.481 8.20006 102.417 9.14622 100.83 10.7231C99.0838 11.827 98.1314 13.877 98.1314 16.2424ZM97.4965 20.1847V15.927V9.30391C97.4965 8.83083 97.3378 8.51545 97.0203 8.20006C96.8616 8.04237 96.3854 7.88468 96.0679 7.88468C95.5918 7.88468 95.2743 8.04237 94.9568 8.35776C94.6394 8.67314 94.4806 8.98853 94.4806 9.4616V16.0847C94.4806 17.5039 93.8457 18.9232 92.8933 19.8693C91.9409 20.8155 90.5124 21.4462 89.0838 21.4462C87.6552 21.4462 86.2267 20.8155 85.2743 19.8693C84.3219 18.9232 83.687 17.5039 83.687 16.0847V9.30391C83.687 8.83083 83.5282 8.51545 83.2108 8.20006C82.8933 8.04237 82.5759 7.88468 82.0997 7.88468C81.6235 7.88468 81.306 8.04237 80.9885 8.35776C80.6711 8.67314 80.5124 8.98853 80.5124 9.4616V16.0847C80.5124 18.4501 81.4647 20.5001 83.052 22.077C84.6394 23.6539 86.7028 24.6001 89.0838 24.6001C89.8775 24.6001 90.6711 24.4424 91.4648 24.2847C91.6235 24.2847 91.7822 24.2847 91.7822 24.127C92.4171 23.9693 93.0521 23.6539 93.5283 23.3386L94.0044 23.0232L93.687 23.6539C93.5283 23.9693 93.5283 24.127 93.3695 24.4424C93.2108 24.7578 93.0521 24.9155 92.8933 25.0732C92.5759 25.3886 92.2584 25.5463 91.7822 25.7039C91.306 25.8616 90.9886 25.8616 90.3536 25.8616C89.8775 25.8616 89.56 26.0193 89.2425 26.3347C88.9251 26.6501 88.7663 26.9655 88.7663 27.4386C88.7663 27.9116 88.9251 28.227 89.2425 28.5424L89.4013 28.7001C89.7187 28.8578 90.0362 29.0155 90.3536 29.0155C91.306 29.0155 92.0997 28.8578 92.8933 28.5424C93.0521 28.5424 93.2108 28.3847 93.2108 28.3847C93.8457 28.0693 94.4806 27.754 94.9568 27.1232C96.0679 26.0193 96.7029 24.4424 97.0203 23.1809C97.4965 21.6039 97.4965 20.5001 97.4965 20.1847ZM63.5282 14.0347C63.5282 14.1924 63.5282 14.1924 63.3695 14.3501C63.3695 14.5078 63.3695 14.6655 63.3695 14.6655V27.9116C63.3695 28.3847 63.5282 28.8578 63.8456 29.1732C64.1631 29.4886 64.4806 29.6463 64.9568 29.6463C65.433 29.6463 65.7504 29.4886 66.0679 29.1732C66.3853 28.8578 66.5441 28.3847 66.5441 27.9116V23.4963L66.3853 23.3386C66.2266 23.3386 66.2266 23.1809 66.0679 23.1809C65.7504 22.8655 65.5917 22.5501 65.433 22.2347V22.077V21.9193C65.433 21.4462 65.433 21.1309 65.5917 20.8155C65.5917 20.8155 65.5917 20.6578 65.7504 20.6578L65.9091 20.5001C66.0679 20.3424 66.3853 20.1847 66.5441 20.027H66.7028V14.9808C67.179 13.4039 68.2901 11.9847 69.8774 11.3539C69.8774 11.1962 70.1949 11.0385 70.3536 11.0385C70.6711 11.0385 70.9885 10.8808 71.306 10.8808H71.4647C72.8933 10.8808 74.3219 11.5116 75.2742 12.4578C76.2266 13.4039 76.8616 14.8232 76.8616 16.2424C76.8616 17.6616 76.2266 19.0809 75.2742 20.027C74.3219 20.9732 72.8933 21.6039 71.4647 21.6039C70.5123 21.6039 69.7187 21.4462 68.925 20.9732C68.7663 20.8155 68.6076 20.8155 68.4488 20.6578C68.2901 20.5001 68.1314 20.5001 67.9726 20.3424C67.4965 20.027 66.8615 19.8693 66.3853 20.1847C66.2266 20.1847 66.2266 20.3424 66.0679 20.3424C65.9091 20.3424 65.9091 20.5001 65.7504 20.5001C65.7504 20.8155 65.7504 21.2886 65.7504 21.6039C65.7504 21.9193 65.9091 22.3924 66.2266 22.5501C66.8615 23.0232 67.4964 23.4963 68.2901 23.8116C68.4488 23.8116 68.6076 23.9693 68.7663 23.9693C69.7187 24.2847 70.6711 24.4424 71.6234 24.4424C74.0044 24.4424 76.0679 23.4963 77.4965 21.9193C79.0838 20.3424 80.0362 18.2924 80.0362 16.0847C80.0362 12.7732 78.1314 10.0924 75.433 8.67314C74.9568 8.35776 74.3219 8.20006 73.6869 8.04237C73.052 8.04237 72.5758 7.88468 71.7822 7.88468H71.6234C68.925 7.88468 66.3853 9.14622 64.798 11.3539C64.4806 11.827 64.1631 12.1424 64.0044 12.6155C63.8457 13.0885 63.6869 13.5616 63.5282 14.0347ZM62.5758 14.0347C62.4171 13.5616 62.2583 13.0885 62.0996 12.6155C61.9409 12.1424 61.6234 11.6693 61.306 11.3539C59.7187 9.30391 57.3377 7.88468 54.4805 7.88468H54.3218C53.6869 7.88468 53.052 8.04237 52.417 8.20006C51.7821 8.35775 51.3059 8.51545 50.671 8.83083C47.9726 10.2501 46.0678 13.0885 46.0678 16.2424C46.0678 18.6078 47.0202 20.6578 48.6075 22.077C50.1948 23.6539 52.2583 24.6001 54.4805 24.6001C55.4329 24.6001 56.3853 24.4424 57.3377 24.127C57.4964 24.127 57.6552 23.9693 57.8139 23.9693C58.6075 23.6539 59.2425 23.1809 59.8774 22.7078C60.0361 22.7078 60.0361 22.5501 60.0361 22.3924C60.0361 22.2347 60.1948 22.2347 60.1948 22.077C60.3536 21.6039 60.3536 20.9732 60.0361 20.5001C60.0361 20.3424 59.8774 20.3424 59.7187 20.3424C59.5599 20.3424 59.5599 20.1847 59.4012 20.1847C58.925 20.027 58.2901 20.027 57.8139 20.3424C57.6552 20.5001 57.4964 20.5001 57.3377 20.6578C57.179 20.8155 57.0202 20.8155 56.8615 20.9732C56.0679 21.4462 55.1155 21.6039 54.3218 21.6039C52.8932 21.6039 51.4647 20.9732 50.5123 20.027C49.5599 19.0809 48.925 17.6616 48.925 16.2424C48.925 14.8232 49.5599 13.4039 50.5123 12.4578C51.4647 11.5116 52.8932 10.8808 54.3218 10.8808H54.4805C54.798 10.8808 55.1155 10.8808 55.4329 11.0385C55.7504 11.0385 56.0678 11.1962 56.3853 11.3539C57.8139 11.9847 59.0837 13.2462 59.5599 14.9808V19.5539H59.7187C60.0361 19.7116 60.1948 19.8693 60.3536 20.027L60.5123 20.1847L60.671 20.3424C60.8298 20.6578 60.9885 21.1309 60.8298 21.4462V21.6039V21.7616C60.671 22.077 60.5123 22.3924 60.1948 22.7078C60.0361 22.7078 60.0361 22.8655 59.8774 22.8655L59.7187 23.0232V23.1809C59.7187 23.3386 59.8774 23.3386 59.8774 23.4963C60.1948 23.9693 60.671 24.2847 61.1472 24.2847C61.6234 24.2847 61.9409 24.127 62.2583 23.8116C62.5758 23.4963 62.7345 23.0232 62.7345 22.5501V14.6655C62.7345 14.5078 62.7345 14.3501 62.7345 14.3501C62.5758 14.1924 62.5758 14.1924 62.5758 14.0347ZM28.7662 14.0347C28.7662 14.1924 28.7662 14.1924 28.6075 14.3501C28.6075 14.5078 28.6075 14.6655 28.6075 14.6655V27.9116C28.6075 28.3847 28.7662 28.8578 29.0837 29.1732C29.4011 29.4886 29.7186 29.6463 30.1948 29.6463C30.671 29.6463 30.9884 29.4886 31.3059 29.1732C31.6234 28.8578 31.7821 28.3847 31.7821 27.9116V23.4963L31.6234 23.3386C31.4646 23.3386 31.4646 23.1809 31.3059 23.1809C30.9884 22.8655 30.8297 22.5501 30.671 22.2347V22.077V21.9193C30.671 21.4462 30.671 21.1309 30.8297 20.8155C30.8297 20.8155 30.8297 20.6578 30.9884 20.6578L31.1472 20.5001C31.3059 20.3424 31.4646 20.1847 31.7821 20.027H31.9408V14.9808C32.417 13.4039 33.5281 11.9847 35.1154 11.3539C35.1154 11.1962 35.4329 11.0385 35.7503 11.0385C36.0678 11.0385 36.3853 10.8808 36.7027 10.8808H36.8615C38.29 10.8808 39.7186 11.5116 40.671 12.4578C41.6234 13.4039 42.2583 14.8232 42.2583 16.2424C42.2583 17.6616 41.6234 19.0809 40.671 20.027C39.7186 20.9732 38.29 21.6039 36.8615 21.6039C35.9091 21.6039 35.1154 21.4462 34.3218 20.9732C34.163 20.8155 34.0043 20.8155 33.8456 20.6578C33.6868 20.5001 33.5281 20.5001 33.3694 20.3424C32.8932 20.027 32.2583 19.8693 31.7821 20.1847C31.6234 20.1847 31.6234 20.3424 31.4646 20.3424C31.3059 20.3424 31.3059 20.5001 31.1472 20.5001C30.8297 20.8155 30.8297 21.2886 30.8297 21.6039C30.8297 21.9193 30.9884 22.3924 31.3059 22.5501C31.9408 23.0232 32.5757 23.4963 33.3694 23.8116C33.5281 23.8116 33.6868 23.9693 33.8456 23.9693C34.798 24.2847 35.7503 24.4424 36.7027 24.4424C39.0837 24.4424 41.1472 23.4963 42.5758 21.9193C44.1631 20.3424 45.1154 18.2924 45.1154 16.0847C45.1154 12.7732 43.2107 10.0924 40.5123 8.67314C40.0361 8.35776 39.4011 8.20006 38.7662 8.04237C38.29 8.04237 37.8138 7.88468 37.1789 7.88468H37.0202C34.3218 7.88468 31.7821 9.14622 30.1948 11.3539C29.7186 11.6693 29.5599 12.1424 29.2424 12.6155C29.0837 13.0885 28.9249 13.5616 28.7662 14.0347ZM21.4646 14.8232C20.9884 14.8232 20.6709 14.9808 20.3535 15.2962C20.036 15.6116 19.8773 15.927 19.8773 16.4001C19.8773 16.8732 20.036 17.1885 20.3535 17.5039C20.6709 17.8193 20.9884 17.977 21.4646 17.977H24.3217C24.7979 17.977 25.1154 17.8193 25.4329 17.5039L25.5916 17.3462C25.7503 17.0309 25.9091 16.7155 25.9091 16.4001C25.9091 15.927 25.7503 15.6116 25.4329 15.2962C25.1154 14.9808 24.7979 14.8232 24.3217 14.8232H21.4646ZM9.40108 15.927C9.40108 18.2924 10.3535 20.3424 11.9408 21.9193C13.5281 23.4963 15.5916 24.4424 17.9725 24.4424C18.6074 24.4424 19.0836 24.4424 19.7186 24.2847C19.7186 24.2847 19.8773 24.2847 20.036 24.2847C20.5122 24.127 20.9884 23.9693 21.4646 23.8116C21.7821 23.6539 22.0995 23.3386 22.2583 23.0232C22.417 22.7078 22.417 22.2347 22.2583 21.9193C22.2583 21.7616 22.0995 21.7616 22.0995 21.6039C22.0995 21.4462 21.9408 21.4462 21.9408 21.2886C21.4646 20.9732 20.8297 20.8155 20.3535 20.9732C20.1948 20.9732 20.1948 20.9732 20.036 21.1309C19.8773 21.1309 19.8773 21.1309 19.7186 21.2886C19.2424 21.4462 18.7662 21.4462 18.1313 21.4462C16.7027 21.4462 15.2741 20.8155 14.3217 19.8693C13.3693 18.9232 12.7344 17.5039 12.7344 16.0847C12.7344 14.6655 13.3693 13.2462 14.3217 12.3001C15.2741 11.3539 16.7027 10.7231 18.1313 10.7231C18.4487 10.7231 18.9249 10.7231 19.2424 10.8808H19.4011C19.7186 10.8808 20.036 11.0385 20.1948 11.1962C20.3535 11.1962 20.3535 11.1962 20.5122 11.3539C20.6709 11.3539 20.6709 11.3539 20.8297 11.3539C21.4646 11.3539 21.9408 11.0385 22.0995 10.4078C22.0995 10.2501 22.0995 10.2501 22.2583 10.0924C22.2583 9.93468 22.2583 9.93468 22.2583 9.77699C22.2583 9.14622 21.9408 8.67314 21.3059 8.51545C21.1471 8.51545 20.9884 8.35776 20.8297 8.35776C20.6709 7.88468 20.5122 7.88468 20.3535 7.88468C19.5598 7.72698 18.7662 7.56929 17.9725 7.56929C15.5916 7.56929 13.3693 8.51545 11.9408 9.93468C10.3535 11.5116 9.40108 13.5616 9.40108 15.927ZM7.02012 7.25391H2.2582C1.78201 7.25391 1.46455 7.4116 1.14709 7.72698C0.829629 8.04237 0.670898 8.35776 0.670898 8.83083C0.670898 9.30391 0.829629 9.6193 1.14709 9.93468C1.46455 10.2501 1.78201 10.4078 2.2582 10.4078H5.43281V10.5655V23.1809C5.43281 23.6539 5.59154 23.9693 5.90901 24.2847C6.22647 24.6001 6.54393 24.7578 7.02012 24.7578C7.49631 24.7578 7.81377 24.6001 8.13123 24.2847C8.44869 23.9693 8.60743 23.6539 8.60743 23.1809V7.4116L7.02012 7.25391Z" fill="white"/>
<path d="M123.528 3.15385C123.528 4.88847 122.1 6.4654 120.195 6.4654C118.449 6.4654 117.021 5.04617 117.021 3.15385C117.021 1.41923 118.449 0 120.195 0C121.941 0 123.528 1.41923 123.528 3.15385ZM117.497 3.15385C117.497 4.57309 118.767 5.83463 120.195 5.83463C121.624 5.99232 122.894 4.73078 122.894 3.15385C122.894 1.73462 121.624 0.473078 120.195 0.473078C118.767 0.630771 117.497 1.73462 117.497 3.15385ZM120.036 1.41923C120.83 1.41923 121.624 1.57693 121.624 2.52308C121.624 2.99616 121.465 3.15385 120.989 3.31155C121.465 3.46924 121.624 3.78462 121.624 4.4154C121.624 4.73078 121.624 4.73078 121.782 4.88847H120.989C120.989 4.73078 120.989 4.73078 120.989 4.4154C120.989 3.62693 120.83 3.62693 120.195 3.62693H119.719V4.88847H118.925V1.41923H120.036ZM120.036 2.99616C120.671 2.99616 120.83 2.83847 120.83 2.52308C120.83 2.2077 120.671 2.05 120.036 2.05H119.719V2.99616H120.036Z" fill="white"/>
</svg>
